<svg version="1.1" id="Layer_1" xmlns="http://www.w3.org/2000/svg" xmlns:xlink="http://www.w3.org/1999/xlink" x="0px" y="0px"
	 width="100%" viewBox="0 0 720 720" enable-background="new 0 0 720 720" xml:space="preserve">
<path fill="#000000" opacity="1.000000" stroke="none" 
	d="
M721.000000,255.000000 
	C721.000000,410.666656 721.000000,565.833313 721.000000,721.000000 
	C481.000000,721.000000 241.000000,721.000000 1.000000,721.000000 
	C1.000000,481.000000 1.000000,241.000000 1.000000,1.000000 
	C241.000000,1.000000 481.000000,1.000000 721.000000,1.000000 
	C721.000000,85.500000 721.000000,170.000000 721.000000,255.000000 
M200.321518,72.190857 
	C186.478775,81.143829 171.972260,89.236687 158.966095,99.273727 
	C143.694565,111.059006 129.226212,124.017738 115.372765,137.460220 
	C106.459000,146.109573 98.658249,156.108032 91.475052,166.289474 
	C81.718094,180.118958 73.028221,194.701294 63.222675,209.211945 
	C60.509869,215.054001 57.797062,220.896042 54.457626,227.134216 
	C48.664345,242.028580 41.953117,256.642090 37.290043,271.882233 
	C30.052044,295.537933 25.299913,319.940826 24.256618,344.651154 
	C23.175219,370.264008 22.939495,396.020905 27.072699,421.501984 
	C31.053572,446.043884 37.343380,470.014221 46.185398,493.257477 
	C48.664150,499.773468 52.088455,505.929718 55.021000,512.988159 
	C57.972637,518.669800 60.924274,524.351501 63.998352,530.751831 
	C66.871017,535.869873 69.478874,541.159241 72.660347,546.077576 
	C90.200653,573.193604 109.558159,598.848083 134.405701,619.816772 
	C145.914459,629.528931 157.521637,639.198364 169.744049,647.967529 
	C179.639404,655.067078 190.522125,660.790405 201.223038,667.778625 
	C207.065094,670.492737 212.907135,673.206848 219.141174,676.548828 
	C222.258377,677.977661 225.351227,679.462646 228.496521,680.826782 
	C262.405060,695.533020 297.924103,704.548035 334.673218,706.612366 
	C358.743622,707.964539 383.111359,706.720337 407.176422,704.659607 
	C428.288574,702.851807 449.036133,697.600647 469.055023,690.351318 
	C480.966858,686.037720 492.530731,680.763367 504.988190,675.979004 
	C510.669830,673.027344 516.351501,670.075684 522.751831,667.001648 
	C527.869873,664.128967 533.159180,661.521240 538.077515,658.339783 
	C565.193481,640.799500 590.848022,621.441956 611.816650,596.594421 
	C621.528748,585.085632 631.198242,573.478455 639.967346,561.256042 
	C647.066895,551.360596 652.790283,540.477905 659.778564,529.776978 
	C662.492737,523.934937 665.206909,518.092896 668.548767,511.858856 
	C674.496582,495.971466 681.218994,480.323792 686.225647,464.145172 
	C695.666748,433.636688 700.107666,402.288483 699.013062,370.258057 
	C698.582520,357.659149 699.061584,344.974884 697.741333,332.475769 
	C696.388489,319.667938 693.616211,306.981598 690.975952,294.344269 
	C686.077271,270.896362 678.632324,248.276001 667.960815,226.087372 
	C665.015198,220.380539 662.069641,214.673706 658.813782,208.327347 
	C656.022461,203.519897 653.601013,198.446884 650.373596,193.952606 
	C638.628723,177.597534 627.168274,160.986984 614.503113,145.362381 
	C606.317505,135.264084 596.359131,126.570015 586.919189,117.535088 
	C582.186462,113.005440 577.125671,108.694397 571.712097,105.023590 
	C555.218323,93.839577 538.480835,83.014893 521.826111,71.325371 
	C515.940430,68.609001 510.054718,65.892639 503.422302,63.016590 
	C499.972321,61.525784 496.527496,60.022865 493.071533,58.546036 
	C452.514618,41.214848 410.010315,33.009514 366.077545,32.135456 
	C354.006683,31.895298 341.905212,33.772743 329.814178,33.823975 
	C313.797150,33.891842 298.438904,37.707085 283.028442,41.096104 
	C260.807251,45.982910 239.325439,53.257198 218.051208,63.051697 
	C212.353363,65.995186 206.655533,68.938683 200.321518,72.190857 
z"/>
<path fill="#DB0235" opacity="1.000000" stroke="none" 
	d="
M218.794373,63.178261 
	C239.325439,53.257198 260.807251,45.982910 283.028442,41.096104 
	C298.438904,37.707085 313.797150,33.891842 329.814178,33.823975 
	C341.905212,33.772743 354.006683,31.895298 366.077545,32.135456 
	C410.010315,33.009514 452.514618,41.214848 493.071533,58.546036 
	C496.527496,60.022865 499.972321,61.525784 503.998962,63.352085 
	C510.329834,66.475166 516.084045,69.262749 521.838257,72.050339 
	C538.480835,83.014893 555.218323,93.839577 571.712097,105.023590 
	C577.125671,108.694397 582.186462,113.005440 586.919189,117.535088 
	C596.359131,126.570015 606.317505,135.264084 614.503113,145.362381 
	C627.168274,160.986984 638.628723,177.597534 650.373596,193.952606 
	C653.601013,198.446884 656.022461,203.519897 658.942200,209.010025 
	C661.988159,215.405975 664.905762,221.119247 667.823303,226.832520 
	C678.632324,248.276001 686.077271,270.896362 690.975952,294.344269 
	C693.616211,306.981598 696.388489,319.667938 697.741333,332.475769 
	C699.061584,344.974884 698.582520,357.659149 699.013062,370.258057 
	C700.107666,402.288483 695.666748,433.636688 686.225647,464.145172 
	C681.218994,480.323792 674.496582,495.971466 667.950623,512.210510 
	C664.609680,518.385803 661.866943,524.209473 659.124146,530.033142 
	C652.790283,540.477905 647.066895,551.360596 639.967346,561.256042 
	C631.198242,573.478455 621.528748,585.085632 611.816650,596.594421 
	C590.848022,621.441956 565.193481,640.799500 538.077515,658.339783 
	C533.159180,661.521240 527.869873,664.128967 522.029541,667.036133 
	C515.621887,670.020691 509.936462,672.970825 504.251038,675.920959 
	C492.530731,680.763367 480.966858,686.037720 469.055023,690.351318 
	C449.036133,697.600647 428.288574,702.851807 407.176422,704.659607 
	C383.111359,706.720337 358.743622,707.964539 334.673218,706.612366 
	C297.924103,704.548035 262.405060,695.533020 228.496521,680.826782 
	C225.351227,679.462646 222.258377,677.977661 218.789612,675.950623 
	C212.614334,672.609619 206.790619,669.866882 200.966888,667.124146 
	C190.522125,660.790405 179.639404,655.067078 169.744049,647.967529 
	C157.521637,639.198364 145.914459,629.528931 134.405701,619.816772 
	C109.558159,598.848083 90.200653,573.193604 72.660347,546.077576 
	C69.478874,541.159241 66.871017,535.869873 63.963860,530.029541 
	C60.979256,523.621887 58.029144,517.936401 55.079033,512.250977 
	C52.088455,505.929718 48.664150,499.773468 46.185398,493.257477 
	C37.343380,470.014221 31.053572,446.043884 27.072699,421.501984 
	C22.939495,396.020905 23.175219,370.264008 24.256618,344.651154 
	C25.299913,319.940826 30.052044,295.537933 37.290043,271.882233 
	C41.953117,256.642090 48.664345,242.028580 55.053818,226.779709 
	C58.393574,220.603714 61.137138,214.782242 63.880703,208.960754 
	C73.028221,194.701294 81.718094,180.118958 91.475052,166.289474 
	C98.658249,156.108032 106.459000,146.109573 115.372765,137.460220 
	C129.226212,124.017738 143.694565,111.059006 158.966095,99.273727 
	C171.972260,89.236687 186.478775,81.143829 201.004089,72.078888 
	C207.389221,69.037369 213.091797,66.107811 218.794373,63.178261 
M67.831757,248.322586 
	C43.963638,306.714233 37.505589,367.082275 49.497433,428.904785 
	C64.449326,505.987427 102.358910,570.044495 164.417862,618.365112 
	C245.071625,681.164185 336.224365,701.087219 435.769775,678.125366 
	C507.665527,661.541382 566.426880,622.953247 611.959839,564.900391 
	C649.837646,516.607605 671.572510,461.506165 677.674377,400.469543 
	C681.125000,365.953552 679.036438,331.635345 670.941345,297.791199 
	C653.386292,224.396378 615.397827,163.773834 555.383545,118.051239 
	C480.953522,61.345787 396.869507,41.121204 304.638184,57.149891 
	C242.182449,68.003944 188.074799,96.138115 142.094040,139.745483 
	C109.765266,170.405533 85.318718,206.544113 67.831757,248.322586 
z"/>
<path fill="#EBA9AD" opacity="1.000000" stroke="none" 
	d="
M218.422791,63.114975 
	C213.091797,66.107811 207.389221,69.037369 201.322174,71.924545 
	C206.655533,68.938683 212.353363,65.995186 218.422791,63.114975 
z"/>
<path fill="#E7949A" opacity="1.000000" stroke="none" 
	d="
M521.832153,71.687851 
	C516.084045,69.262749 510.329834,66.475166 504.372314,63.431927 
	C510.054718,65.892639 515.940430,68.609001 521.832153,71.687851 
z"/>
<path fill="#E8999F" opacity="1.000000" stroke="none" 
	d="
M63.551689,209.086349 
	C61.137138,214.782242 58.393574,220.603714 55.367130,226.581650 
	C57.797062,220.896042 60.509869,215.054001 63.551689,209.086349 
z"/>
<path fill="#E7949A" opacity="1.000000" stroke="none" 
	d="
M667.892090,226.459946 
	C664.905762,221.119247 661.988159,215.405975 659.097290,209.329788 
	C662.069641,214.673706 665.015198,220.380539 667.892090,226.459946 
z"/>
<path fill="#E7949A" opacity="1.000000" stroke="none" 
	d="
M55.050014,512.619568 
	C58.029144,517.936401 60.979256,523.621887 63.902641,529.670227 
	C60.924274,524.351501 57.972637,518.669800 55.050014,512.619568 
z"/>
<path fill="#E7949A" opacity="1.000000" stroke="none" 
	d="
M659.451355,529.905029 
	C661.866943,524.209473 664.609680,518.385803 667.636719,512.406494 
	C665.206909,518.092896 662.492737,523.934937 659.451355,529.905029 
z"/>
<path fill="#E7949A" opacity="1.000000" stroke="none" 
	d="
M201.094971,667.451416 
	C206.790619,669.866882 212.614334,672.609619 218.593613,675.636719 
	C212.907135,673.206848 207.065094,670.492737 201.094971,667.451416 
z"/>
<path fill="#E7949A" opacity="1.000000" stroke="none" 
	d="
M504.619629,675.949951 
	C509.936462,672.970825 515.621887,670.020691 521.670227,667.097290 
	C516.351501,670.075684 510.669830,673.027344 504.619629,675.949951 
z"/>
<path fill="#FFFFFF" opacity="1.000000" stroke="none" 
	d="
M67.966232,247.964310 
	C85.318718,206.544113 109.765266,170.405533 142.094040,139.745483 
	C188.074799,96.138115 242.182449,68.003944 304.638184,57.149891 
	C396.869507,41.121204 480.953522,61.345787 555.383545,118.051239 
	C615.397827,163.773834 653.386292,224.396378 670.941345,297.791199 
	C679.036438,331.635345 681.125000,365.953552 677.674377,400.469543 
	C671.572510,461.506165 649.837646,516.607605 611.959839,564.900391 
	C566.426880,622.953247 507.665527,661.541382 435.769775,678.125366 
	C336.224365,701.087219 245.071625,681.164185 164.417862,618.365112 
	C102.358910,570.044495 64.449326,505.987427 49.497433,428.904785 
	C37.505589,367.082275 43.963638,306.714233 67.966232,247.964310 
M299.606567,411.000000 
	C319.682312,411.000000 339.758026,411.000000 360.097198,411.000000 
	C360.097198,459.687653 360.097198,507.626892 360.097198,555.627991 
	C376.565918,555.627991 392.759369,555.627991 409.215454,555.627991 
	C409.215454,497.315308 409.215454,439.374329 409.215454,380.981537 
	C461.873779,380.981537 514.267212,380.981537 566.776367,380.981537 
	C566.776367,366.463989 566.776367,352.400818 566.776367,337.884155 
	C514.130615,337.884155 461.738464,337.884155 409.351257,337.884155 
	C409.351257,303.369690 409.351257,269.311279 409.351257,234.795471 
	C470.713623,234.795471 531.769592,234.795471 592.650024,234.795471 
	C592.650024,220.267029 592.650024,206.199982 592.650024,192.000427 
	C591.475525,192.000427 590.651001,192.000412 589.826477,192.000412 
	C495.842377,192.000351 401.858154,191.912552 307.874329,192.071671 
	C288.238556,192.104904 268.589447,192.897827 249.252792,196.936905 
	C210.742188,204.981064 172.833099,232.870850 170.355576,281.735596 
	C168.252823,323.208466 181.096420,357.388580 216.048050,381.454224 
	C224.705826,387.415466 234.365509,391.921631 243.823837,397.242462 
	C198.786453,449.763123 153.547592,502.518707 107.689301,555.996643 
	C128.561935,555.996643 148.350327,556.045959 168.136993,555.885376 
	C169.452057,555.874756 171.052444,554.519226 172.019287,553.368530 
	C210.274963,507.837524 248.518753,462.296265 286.597168,416.617157 
	C289.945862,412.600037 293.234100,409.896240 299.606567,411.000000 
z"/>
<path fill="#0002CB" opacity="1.000000" stroke="none" 
	d="
M299.127350,411.000000 
	C293.234100,409.896240 289.945862,412.600037 286.597168,416.617157 
	C248.518753,462.296265 210.274963,507.837524 172.019287,553.368530 
	C171.052444,554.519226 169.452057,555.874756 168.136993,555.885376 
	C148.350327,556.045959 128.561935,555.996643 107.689301,555.996643 
	C153.547592,502.518707 198.786453,449.763123 243.823837,397.242462 
	C234.365509,391.921631 224.705826,387.415466 216.048050,381.454224 
	C181.096420,357.388580 168.252823,323.208466 170.355576,281.735596 
	C172.833099,232.870850 210.742188,204.981064 249.252792,196.936905 
	C268.589447,192.897827 288.238556,192.104904 307.874329,192.071671 
	C401.858154,191.912552 495.842377,192.000351 589.826477,192.000412 
	C590.651001,192.000412 591.475525,192.000427 592.650024,192.000427 
	C592.650024,206.199982 592.650024,220.267029 592.650024,234.795471 
	C531.769592,234.795471 470.713623,234.795471 409.351257,234.795471 
	C409.351257,269.311279 409.351257,303.369690 409.351257,337.884155 
	C461.738464,337.884155 514.130615,337.884155 566.776367,337.884155 
	C566.776367,352.400818 566.776367,366.463989 566.776367,380.981537 
	C514.267212,380.981537 461.873779,380.981537 409.215454,380.981537 
	C409.215454,439.374329 409.215454,497.315308 409.215454,555.627991 
	C392.759369,555.627991 376.565918,555.627991 360.097198,555.627991 
	C360.097198,507.626892 360.097198,459.687653 360.097198,411.000000 
	C339.758026,411.000000 319.682312,411.000000 299.127350,411.000000 
M221.027557,308.561035 
	C222.796799,338.235138 244.140961,362.628632 274.020050,367.688171 
	C286.899628,369.869110 300.117065,370.432922 313.209991,370.877747 
	C328.636993,371.401855 344.095459,371.000671 359.725159,371.000671 
	C359.725159,325.167755 359.725159,279.788208 359.725159,233.999344 
	C358.372528,233.999344 357.247925,233.998795 356.123291,233.999420 
	C335.633514,234.010956 315.136627,233.710022 294.657104,234.173798 
	C285.234222,234.387161 275.647247,235.226181 266.480713,237.306351 
	C245.054169,242.168732 228.654510,253.505798 222.554276,275.973541 
	C219.734100,286.360413 219.353546,296.988983 221.027557,308.561035 
z"/>
<path fill="#FEFEFF" opacity="1.000000" stroke="none" 
	d="
M221.009674,308.108948 
	C219.353546,296.988983 219.734100,286.360413 222.554276,275.973541 
	C228.654510,253.505798 245.054169,242.168732 266.480713,237.306351 
	C275.647247,235.226181 285.234222,234.387161 294.657104,234.173798 
	C315.136627,233.710022 335.633514,234.010956 356.123291,233.999420 
	C357.247925,233.998795 358.372528,233.999344 359.725159,233.999344 
	C359.725159,279.788208 359.725159,325.167755 359.725159,371.000671 
	C344.095459,371.000671 328.636993,371.401855 313.209991,370.877747 
	C300.117065,370.432922 286.899628,369.869110 274.020050,367.688171 
	C244.140961,362.628632 222.796799,338.235138 221.009674,308.108948 
z"/>
</svg>